<svg width="16" height="16" viewBox="0 0 16 16" fill="none" xmlns="http://www.w3.org/2000/svg">
<g clip-path="url(#clip0_127_2242)">
<path d="M12 2.66659H11.3333V1.99992C11.3333 1.82311 11.2631 1.65354 11.1381 1.52851C11.013 1.40349 10.8435 1.33325 10.6667 1.33325C10.4899 1.33325 10.3203 1.40349 10.1953 1.52851C10.0702 1.65354 10 1.82311 10 1.99992V2.66659H6V1.99992C6 1.82311 5.92976 1.65354 5.80474 1.52851C5.67971 1.40349 5.51014 1.33325 5.33333 1.33325C5.15652 1.33325 4.98695 1.40349 4.86193 1.52851C4.7369 1.65354 4.66667 1.82311 4.66667 1.99992V2.66659H4C3.46957 2.66659 2.96086 2.8773 2.58579 3.25237C2.21071 3.62744 2 4.13615 2 4.66659V12.6666C2 13.197 2.21071 13.7057 2.58579 14.0808C2.96086 14.4559 3.46957 14.6666 4 14.6666H12C12.5304 14.6666 13.0391 14.4559 13.4142 14.0808C13.7893 13.7057 14 13.197 14 12.6666V4.66659C14 4.13615 13.7893 3.62744 13.4142 3.25237C13.0391 2.8773 12.5304 2.66659 12 2.66659ZM5.33333 11.3333C5.20148 11.3333 5.07259 11.2942 4.96295 11.2209C4.85332 11.1476 4.76787 11.0435 4.71741 10.9217C4.66696 10.7999 4.65375 10.6658 4.67948 10.5365C4.7052 10.4072 4.76869 10.2884 4.86193 10.1952C4.95516 10.1019 5.07395 10.0385 5.20327 10.0127C5.33259 9.98701 5.46664 10.0002 5.58846 10.0507C5.71027 10.1011 5.81439 10.1866 5.88765 10.2962C5.9609 10.4058 6 10.5347 6 10.6666C6 10.8434 5.92976 11.013 5.80474 11.138C5.67971 11.263 5.51014 11.3333 5.33333 11.3333ZM10.6667 11.3333H8C7.82319 11.3333 7.65362 11.263 7.5286 11.138C7.40357 11.013 7.33333 10.8434 7.33333 10.6666C7.33333 10.4898 7.40357 10.3202 7.5286 10.1952C7.65362 10.0702 7.82319 9.99992 8 9.99992H10.6667C10.8435 9.99992 11.013 10.0702 11.1381 10.1952C11.2631 10.3202 11.3333 10.4898 11.3333 10.6666C11.3333 10.8434 11.2631 11.013 11.1381 11.138C11.013 11.263 10.8435 11.3333 10.6667 11.3333ZM12.6667 7.33325H3.33333V4.66659C3.33333 4.48977 3.40357 4.32021 3.5286 4.19518C3.65362 4.07016 3.82319 3.99992 4 3.99992H4.66667V4.66659C4.66667 4.8434 4.7369 5.01297 4.86193 5.13799C4.98695 5.26301 5.15652 5.33325 5.33333 5.33325C5.51014 5.33325 5.67971 5.26301 5.80474 5.13799C5.92976 5.01297 6 4.8434 6 4.66659V3.99992H10V4.66659C10 4.8434 10.0702 5.01297 10.1953 5.13799C10.3203 5.26301 10.4899 5.33325 10.6667 5.33325C10.8435 5.33325 11.013 5.26301 11.1381 5.13799C11.2631 5.01297 11.3333 4.8434 11.3333 4.66659V3.99992H12C12.1768 3.99992 12.3464 4.07016 12.4714 4.19518C12.5964 4.32021 12.6667 4.48977 12.6667 4.66659V7.33325Z" fill="#92929D"/>
</g>
<defs>
<clipPath id="clip0_127_2242">
<rect width="16" height="16" fill="white"/>
</clipPath>
</defs>
</svg>
