<svg width="18" height="18" viewBox="0 0 18 18" fill="none" xmlns="http://www.w3.org/2000/svg">
<path fill-rule="evenodd" clip-rule="evenodd" d="M8.16699 0.666748H4.00033C2.15949 0.666748 0.666992 2.15925 0.666992 4.00008V14.0001C0.666992 15.8409 2.15949 17.3334 4.00033 17.3334H14.0003C15.8412 17.3334 17.3337 15.8409 17.3337 14.0001C17.3337 12.1076 17.3337 9.83342 17.3337 9.83342C17.3337 9.37341 16.9603 9.00008 16.5003 9.00008C16.0403 9.00008 15.667 9.37341 15.667 9.83342V14.0001C15.667 14.9201 14.9203 15.6667 14.0003 15.6667C11.2253 15.6667 6.77449 15.6667 4.00033 15.6667C3.07949 15.6667 2.33366 14.9201 2.33366 14.0001C2.33366 11.2251 2.33366 6.77425 2.33366 4.00008C2.33366 3.07925 3.07949 2.33341 4.00033 2.33341H8.16699C8.62699 2.33341 9.00033 1.96008 9.00033 1.50008C9.00033 1.04008 8.62699 0.666748 8.16699 0.666748ZM14.4887 2.33341H11.5003C11.0403 2.33341 10.667 1.96008 10.667 1.50008C10.667 1.04008 11.0403 0.666748 11.5003 0.666748H16.5003C16.9603 0.666748 17.3337 1.04008 17.3337 1.50008V6.50008C17.3337 6.96008 16.9603 7.33342 16.5003 7.33342C16.0403 7.33342 15.667 6.96008 15.667 6.50008V3.51175L9.58949 9.58925C9.26449 9.91425 8.73616 9.91425 8.41116 9.58925C8.08532 9.26425 8.08532 8.73591 8.41116 8.41091L14.4887 2.33341Z" fill="#12CDD9"/>
</svg>
