<svg width="20" height="20" viewBox="0 0 20 20" fill="none" xmlns="http://www.w3.org/2000/svg">
<g id="share (4) 1">
<g id="Group">
<path id="Vector" fill-rule="evenodd" clip-rule="evenodd" d="M9.16699 1.66675H5.00033C3.15949 1.66675 1.66699 3.15925 1.66699 5.00008V15.0001C1.66699 16.8409 3.15949 18.3334 5.00033 18.3334H15.0003C16.8412 18.3334 18.3337 16.8409 18.3337 15.0001C18.3337 13.1076 18.3337 10.8334 18.3337 10.8334C18.3337 10.3734 17.9603 10.0001 17.5003 10.0001C17.0403 10.0001 16.667 10.3734 16.667 10.8334V15.0001C16.667 15.9201 15.9203 16.6667 15.0003 16.6667C12.2253 16.6667 7.77449 16.6667 5.00033 16.6667C4.07949 16.6667 3.33366 15.9201 3.33366 15.0001C3.33366 12.2251 3.33366 7.77425 3.33366 5.00008C3.33366 4.07925 4.07949 3.33341 5.00033 3.33341H9.16699C9.62699 3.33341 10.0003 2.96008 10.0003 2.50008C10.0003 2.04008 9.62699 1.66675 9.16699 1.66675ZM15.4887 3.33341H12.5003C12.0403 3.33341 11.667 2.96008 11.667 2.50008C11.667 2.04008 12.0403 1.66675 12.5003 1.66675H17.5003C17.9603 1.66675 18.3337 2.04008 18.3337 2.50008V7.50008C18.3337 7.96008 17.9603 8.33342 17.5003 8.33342C17.0403 8.33342 16.667 7.96008 16.667 7.50008V4.51175L10.5895 10.5892C10.2645 10.9142 9.73616 10.9142 9.41116 10.5892C9.08532 10.2642 9.08532 9.73591 9.41116 9.41091L15.4887 3.33341Z" fill="#12CDD9"/>
</g>
</g>
</svg>
