<?xml version="1.0" encoding="UTF-8" standalone="no" ?>
<!DOCTYPE svg PUBLIC "-//W3C//DTD SVG 1.1//EN" "http://www.w3.org/Graphics/SVG/1.1/DTD/svg11.dtd">
<svg xmlns="http://www.w3.org/2000/svg" xmlns:xlink="http://www.w3.org/1999/xlink" version="1.1" width="400" height="400" viewBox="0 0 400 400" xml:space="preserve">
<desc>Created with Fabric.js 3.6.2</desc>
<defs>
</defs>
<g transform="matrix(4.17 0 0 4.17 200 200)" id="Layer_1"  >
<circle style="stroke: none; stroke-width: 1; stroke-dasharray: none; stroke-linecap: butt; stroke-dashoffset: 0; stroke-linejoin: miter; stroke-miterlimit: 4; fill: rgb(41,182,246); fill-rule: nonzero; opacity: 1;"  cx="0" cy="0" r="20" />
</g>
<g transform="matrix(4.17 0 0 4.17 191.67 202.08)" id="Layer_1"  >
<path style="stroke: none; stroke-width: 1; stroke-dasharray: none; stroke-linecap: butt; stroke-dashoffset: 0; stroke-linejoin: miter; stroke-miterlimit: 4; fill: rgb(255,255,255); fill-rule: nonzero; opacity: 1;"  transform=" translate(-22, -24.5)" d="M 33.95 15 l -3.746 19.126 c 0 0 -0.161 0.874 -1.245 0.874 c -0.576 0 -0.873 -0.274 -0.873 -0.274 l -8.114 -6.733 l -3.97 -2.001 l -5.095 -1.355 c 0 0 -0.907 -0.262 -0.907 -1.012 c 0 -0.625 0.933 -0.923 0.933 -0.923 l 21.316 -8.468 c -0.001 -0.001 0.651 -0.235 1.126 -0.234 C 33.667 14 34 14.125 34 14.5 C 34 14.75 33.95 15 33.95 15 z" stroke-linecap="round" />
</g>
<g transform="matrix(4.17 0 0 4.17 187.51 229.15)" id="Layer_1"  >
<path style="stroke: none; stroke-width: 1; stroke-dasharray: none; stroke-linecap: butt; stroke-dashoffset: 0; stroke-linejoin: miter; stroke-miterlimit: 4; fill: rgb(176,190,197); fill-rule: nonzero; opacity: 1;"  transform=" translate(-21, -31)" d="M 23 30.505 l -3.426 3.374 c 0 0 -0.149 0.115 -0.348 0.12 c -0.069 0.002 -0.143 -0.009 -0.219 -0.043 l 0.964 -5.965 L 23 30.505 z" stroke-linecap="round" />
</g>
<g transform="matrix(4.17 0 0 4.17 195.83 208.24)" id="Layer_1"  >
<path style="stroke: none; stroke-width: 1; stroke-dasharray: none; stroke-linecap: butt; stroke-dashoffset: 0; stroke-linejoin: miter; stroke-miterlimit: 4; fill: rgb(207,216,220); fill-rule: nonzero; opacity: 1;"  transform=" translate(-23, -25.98)" d="M 29.897 18.196 c -0.169 -0.22 -0.481 -0.26 -0.701 -0.093 L 16 26 c 0 0 2.106 5.892 2.427 6.912 c 0.322 1.021 0.58 1.045 0.58 1.045 l 0.964 -5.965 l 9.832 -9.096 C 30.023 18.729 30.064 18.416 29.897 18.196 z" stroke-linecap="round" />
</g>
</svg>