<svg width="16" height="16" viewBox="0 0 16 16" fill="none" xmlns="http://www.w3.org/2000/svg">
<path d="M7.99968 1.33325C6.68114 1.33325 5.3922 1.72425 4.29588 2.45679C3.19955 3.18933 2.34506 4.23052 1.84048 5.4487C1.3359 6.66687 1.20387 8.00731 1.46111 9.30052C1.71834 10.5937 2.35328 11.7816 3.28563 12.714C4.21798 13.6463 5.40587 14.2813 6.69908 14.5385C7.99228 14.7957 9.33273 14.6637 10.5509 14.1591C11.7691 13.6545 12.8103 12.8 13.5428 11.7037C14.2753 10.6074 14.6663 9.31846 14.6663 7.99992C14.6663 7.12444 14.4939 6.25753 14.1589 5.4487C13.8238 4.63986 13.3328 3.90493 12.7137 3.28587C12.0947 2.66682 11.3597 2.17575 10.5509 1.84072C9.74206 1.50569 8.87516 1.33325 7.99968 1.33325ZM10.6663 8.66659H7.99968C7.82287 8.66659 7.6533 8.59635 7.52827 8.47132C7.40325 8.3463 7.33301 8.17673 7.33301 7.99992V5.33325C7.33301 5.15644 7.40325 4.98687 7.52827 4.86185C7.6533 4.73682 7.82287 4.66659 7.99968 4.66659C8.17649 4.66659 8.34606 4.73682 8.47108 4.86185C8.59611 4.98687 8.66634 5.15644 8.66634 5.33325V7.33325H10.6663C10.8432 7.33325 11.0127 7.40349 11.1377 7.52851C11.2628 7.65354 11.333 7.82311 11.333 7.99992C11.333 8.17673 11.2628 8.3463 11.1377 8.47132C11.0127 8.59635 10.8432 8.66659 10.6663 8.66659Z" fill="#92929D"/>
</svg>
